<mxfile host="www.draw.io" modified="2020-01-14T05:07:28.031Z" agent="Mozilla/5.0 (Windows NT 10.0; Win64; x64) AppleWebKit/537.36 (KHTML, like Gecko) Chrome/79.0.3945.117 Safari/537.36" etag="rxDBd2OFY3FVdlZlT5IE" version="12.5.1" type="github">
  <diagram id="28PeY2RXEUUbJMJ925cM" name="Page-1">
    <mxGraphModel dx="2031" dy="1064" grid="1" gridSize="10" guides="1" tooltips="1" connect="1" arrows="1" fold="1" page="1" pageScale="1" pageWidth="1654" pageHeight="1169" math="0" shadow="0">
      <root>
        <mxCell id="0"/>
        <mxCell id="1" parent="0"/>
        <mxCell id="wWVAUo-H3skDUArlrtCe-8" value="" style="shape=mxgraph.pid.vessels.bag;html=1;pointerEvents=1;align=center;verticalLabelPosition=bottom;verticalAlign=top;dashed=0;strokeColor=#3333FF;" parent="1" vertex="1">
          <mxGeometry x="115" y="440" width="50" height="280" as="geometry"/>
        </mxCell>
        <mxCell id="wWVAUo-H3skDUArlrtCe-9" value="&lt;font style=&quot;font-size: 32px&quot;&gt;АЗОТ&lt;/font&gt;" style="text;html=1;resizable=0;autosize=1;align=center;verticalAlign=middle;points=[];fillColor=none;strokeColor=none;rounded=0;rotation=-90;fontColor=#3333FF;" parent="1" vertex="1">
          <mxGeometry x="90" y="590" width="100" height="30" as="geometry"/>
        </mxCell>
        <mxCell id="wWVAUo-H3skDUArlrtCe-10" value="" style="verticalLabelPosition=bottom;align=center;html=1;verticalAlign=top;pointerEvents=1;dashed=0;shape=mxgraph.pid2valves.valve;valveType=gate;rotation=-90;strokeColor=#3333FF;" parent="1" vertex="1">
          <mxGeometry x="122.5" y="390" width="35" height="20" as="geometry"/>
        </mxCell>
        <mxCell id="wWVAUo-H3skDUArlrtCe-12" value="" style="endArrow=none;html=1;entryX=0;entryY=0.502;entryDx=0;entryDy=0;entryPerimeter=0;strokeColor=#3333FF;" parent="1" target="wWVAUo-H3skDUArlrtCe-10" edge="1">
          <mxGeometry width="50" height="50" relative="1" as="geometry">
            <mxPoint x="140" y="440" as="sourcePoint"/>
            <mxPoint x="190" y="470" as="targetPoint"/>
          </mxGeometry>
        </mxCell>
        <mxCell id="wWVAUo-H3skDUArlrtCe-14" value="&lt;font style=&quot;font-size: 14px&quot;&gt;Редуктор&lt;/font&gt;" style="text;html=1;resizable=0;autosize=1;align=center;verticalAlign=middle;points=[];fillColor=none;strokeColor=none;rounded=0;fontColor=#3333FF;" parent="1" vertex="1">
          <mxGeometry x="145" y="390" width="70" height="20" as="geometry"/>
        </mxCell>
        <mxCell id="wWVAUo-H3skDUArlrtCe-15" value="" style="endArrow=none;html=1;strokeColor=#3333FF;" parent="1" edge="1">
          <mxGeometry width="50" height="50" relative="1" as="geometry">
            <mxPoint x="139.94" y="383" as="sourcePoint"/>
            <mxPoint x="139.94" y="330" as="targetPoint"/>
          </mxGeometry>
        </mxCell>
        <mxCell id="wWVAUo-H3skDUArlrtCe-16" value="" style="endArrow=none;html=1;entryX=0;entryY=0.492;entryDx=0;entryDy=0;entryPerimeter=0;strokeColor=#3333FF;" parent="1" target="wWVAUo-H3skDUArlrtCe-18" edge="1">
          <mxGeometry width="50" height="50" relative="1" as="geometry">
            <mxPoint x="140" y="330" as="sourcePoint"/>
            <mxPoint x="275" y="330" as="targetPoint"/>
          </mxGeometry>
        </mxCell>
        <mxCell id="wWVAUo-H3skDUArlrtCe-18" value="" style="verticalLabelPosition=bottom;align=center;html=1;verticalAlign=top;pointerEvents=1;dashed=0;shape=mxgraph.pid2valves.valve;valveType=gate;strokeColor=#3333FF;" parent="1" vertex="1">
          <mxGeometry x="325" y="320" width="40" height="20" as="geometry"/>
        </mxCell>
        <mxCell id="wWVAUo-H3skDUArlrtCe-24" value="" style="endArrow=none;html=1;strokeColor=#3333FF;" parent="1" edge="1">
          <mxGeometry width="50" height="50" relative="1" as="geometry">
            <mxPoint x="365" y="330" as="sourcePoint"/>
            <mxPoint x="445" y="330" as="targetPoint"/>
          </mxGeometry>
        </mxCell>
        <mxCell id="wWVAUo-H3skDUArlrtCe-30" value="" style="perimeter=ellipsePerimeter;verticalLabelPosition=bottom;shadow=0;dashed=0;align=center;html=1;verticalAlign=top;shape=mxgraph.electrical.instruments.galvanometer;rotation=-45;strokeColor=#3333FF;" parent="1" vertex="1">
          <mxGeometry x="245" y="380" width="60" height="60" as="geometry"/>
        </mxCell>
        <mxCell id="wWVAUo-H3skDUArlrtCe-31" value="" style="perimeter=ellipsePerimeter;verticalLabelPosition=bottom;shadow=0;dashed=0;align=center;html=1;verticalAlign=top;shape=mxgraph.electrical.instruments.galvanometer;rotation=-45;strokeColor=#3333FF;" parent="1" vertex="1">
          <mxGeometry x="625" y="285" width="60" height="250" as="geometry"/>
        </mxCell>
        <mxCell id="wWVAUo-H3skDUArlrtCe-32" value="" style="perimeter=ellipsePerimeter;verticalLabelPosition=bottom;shadow=0;dashed=0;align=center;html=1;verticalAlign=top;shape=mxgraph.electrical.instruments.galvanometer;rotation=-45;strokeColor=#3333FF;" parent="1" vertex="1">
          <mxGeometry x="245" y="220" width="60" height="60" as="geometry"/>
        </mxCell>
        <mxCell id="wWVAUo-H3skDUArlrtCe-36" value="Манометр&lt;br&gt;6 кгс/см&lt;sup&gt;2&lt;/sup&gt;" style="text;html=1;resizable=0;autosize=1;align=center;verticalAlign=middle;points=[];fillColor=none;strokeColor=none;rounded=0;fontSize=14;fontColor=#3333FF;" parent="1" vertex="1">
          <mxGeometry x="235" y="160" width="80" height="50" as="geometry"/>
        </mxCell>
        <mxCell id="wWVAUo-H3skDUArlrtCe-37" value="Манометр&lt;br&gt;10 кгс/см&lt;sup&gt;2&lt;/sup&gt;" style="text;html=1;resizable=0;autosize=1;align=center;verticalAlign=middle;points=[];fillColor=none;strokeColor=none;rounded=0;fontSize=14;fontColor=#3333FF;" parent="1" vertex="1">
          <mxGeometry x="235" y="330" width="80" height="50" as="geometry"/>
        </mxCell>
        <mxCell id="wWVAUo-H3skDUArlrtCe-38" value="Манометр&lt;br&gt;25 кгс/см&lt;sup&gt;2&lt;/sup&gt;" style="text;html=1;resizable=0;autosize=1;align=center;verticalAlign=middle;points=[];fillColor=none;strokeColor=none;rounded=0;fontSize=14;fontColor=#3333FF;" parent="1" vertex="1">
          <mxGeometry x="615" y="330" width="80" height="50" as="geometry"/>
        </mxCell>
        <mxCell id="wWVAUo-H3skDUArlrtCe-43" value="Атмосфера" style="text;html=1;resizable=0;autosize=1;align=center;verticalAlign=middle;points=[];fillColor=none;strokeColor=none;rounded=0;fontSize=14;fontColor=#3333FF;" parent="1" vertex="1">
          <mxGeometry x="540" y="215" width="90" height="20" as="geometry"/>
        </mxCell>
        <mxCell id="wWVAUo-H3skDUArlrtCe-45" value="" style="verticalLabelPosition=bottom;align=center;html=1;verticalAlign=top;pointerEvents=1;dashed=0;shape=mxgraph.pid2valves.valve;valveType=gate;strokeColor=#3333FF;" parent="1" vertex="1">
          <mxGeometry x="325" y="240" width="40" height="20" as="geometry"/>
        </mxCell>
        <mxCell id="wWVAUo-H3skDUArlrtCe-46" value="" style="verticalLabelPosition=bottom;align=center;html=1;verticalAlign=top;pointerEvents=1;dashed=0;shape=mxgraph.pid2valves.valve;valveType=gate;strokeColor=#3333FF;" parent="1" vertex="1">
          <mxGeometry x="325" y="400" width="40" height="20" as="geometry"/>
        </mxCell>
        <mxCell id="wWVAUo-H3skDUArlrtCe-48" value="" style="endArrow=none;html=1;strokeColor=#3333FF;" parent="1" edge="1">
          <mxGeometry width="50" height="50" relative="1" as="geometry">
            <mxPoint x="365" y="249.58000000000004" as="sourcePoint"/>
            <mxPoint x="445" y="249.58000000000004" as="targetPoint"/>
          </mxGeometry>
        </mxCell>
        <mxCell id="wWVAUo-H3skDUArlrtCe-49" value="" style="endArrow=none;html=1;strokeColor=#3333FF;" parent="1" edge="1">
          <mxGeometry width="50" height="50" relative="1" as="geometry">
            <mxPoint x="365" y="409.58000000000004" as="sourcePoint"/>
            <mxPoint x="445" y="409.58000000000004" as="targetPoint"/>
          </mxGeometry>
        </mxCell>
        <mxCell id="wWVAUo-H3skDUArlrtCe-50" value="" style="endArrow=none;html=1;exitX=0.855;exitY=0.855;exitDx=0;exitDy=0;exitPerimeter=0;entryX=0.003;entryY=0.497;entryDx=0;entryDy=0;entryPerimeter=0;strokeColor=#3333FF;" parent="1" source="wWVAUo-H3skDUArlrtCe-32" target="wWVAUo-H3skDUArlrtCe-45" edge="1">
          <mxGeometry width="50" height="50" relative="1" as="geometry">
            <mxPoint x="315" y="270" as="sourcePoint"/>
            <mxPoint x="324" y="250" as="targetPoint"/>
          </mxGeometry>
        </mxCell>
        <mxCell id="wWVAUo-H3skDUArlrtCe-51" value="" style="endArrow=none;html=1;exitX=0.855;exitY=0.855;exitDx=0;exitDy=0;exitPerimeter=0;entryX=0.003;entryY=0.497;entryDx=0;entryDy=0;entryPerimeter=0;strokeColor=#3333FF;" parent="1" edge="1">
          <mxGeometry width="50" height="50" relative="1" as="geometry">
            <mxPoint x="305" y="410.03" as="sourcePoint"/>
            <mxPoint x="324.99725112145313" y="409.9699999999999" as="targetPoint"/>
          </mxGeometry>
        </mxCell>
        <mxCell id="wWVAUo-H3skDUArlrtCe-52" value="" style="shape=mxgraph.pid.vessels.tank,_vessel;html=1;pointerEvents=1;align=center;verticalLabelPosition=bottom;verticalAlign=top;dashed=0;fontSize=14;strokeColor=#3333FF;" parent="1" vertex="1">
          <mxGeometry x="445" y="235" width="40" height="190" as="geometry"/>
        </mxCell>
        <mxCell id="wWVAUo-H3skDUArlrtCe-54" value="" style="endArrow=none;html=1;strokeColor=#3333FF;" parent="1" edge="1">
          <mxGeometry width="50" height="50" relative="1" as="geometry">
            <mxPoint x="485" y="249.40999999999997" as="sourcePoint"/>
            <mxPoint x="565" y="249.40999999999997" as="targetPoint"/>
          </mxGeometry>
        </mxCell>
        <mxCell id="wWVAUo-H3skDUArlrtCe-55" value="" style="endArrow=none;html=1;strokeColor=#3333FF;" parent="1" edge="1">
          <mxGeometry width="50" height="50" relative="1" as="geometry">
            <mxPoint x="485" y="329.83000000000004" as="sourcePoint"/>
            <mxPoint x="565" y="329.83000000000004" as="targetPoint"/>
          </mxGeometry>
        </mxCell>
        <mxCell id="wWVAUo-H3skDUArlrtCe-56" value="" style="endArrow=none;html=1;strokeColor=#3333FF;" parent="1" edge="1">
          <mxGeometry width="50" height="50" relative="1" as="geometry">
            <mxPoint x="485" y="409.40999999999997" as="sourcePoint"/>
            <mxPoint x="565" y="409.40999999999997" as="targetPoint"/>
          </mxGeometry>
        </mxCell>
        <mxCell id="wWVAUo-H3skDUArlrtCe-57" value="" style="verticalLabelPosition=bottom;align=center;html=1;verticalAlign=top;pointerEvents=1;dashed=0;shape=mxgraph.pid2valves.valve;valveType=gate;strokeColor=#3333FF;" parent="1" vertex="1">
          <mxGeometry x="565" y="240" width="40" height="20" as="geometry"/>
        </mxCell>
        <mxCell id="wWVAUo-H3skDUArlrtCe-58" value="" style="verticalLabelPosition=bottom;align=center;html=1;verticalAlign=top;pointerEvents=1;dashed=0;shape=mxgraph.pid2valves.valve;valveType=gate;strokeColor=#3333FF;" parent="1" vertex="1">
          <mxGeometry x="565" y="320" width="40" height="20" as="geometry"/>
        </mxCell>
        <mxCell id="wWVAUo-H3skDUArlrtCe-59" value="" style="verticalLabelPosition=bottom;align=center;html=1;verticalAlign=top;pointerEvents=1;dashed=0;shape=mxgraph.pid2valves.valve;valveType=gate;strokeColor=#3333FF;" parent="1" vertex="1">
          <mxGeometry x="565" y="400" width="40" height="20" as="geometry"/>
        </mxCell>
        <mxCell id="wWVAUo-H3skDUArlrtCe-60" value="" style="endArrow=none;html=1;exitX=0.855;exitY=0.855;exitDx=0;exitDy=0;exitPerimeter=0;entryX=0.003;entryY=0.497;entryDx=0;entryDy=0;entryPerimeter=0;strokeColor=#3333FF;" parent="1" edge="1">
          <mxGeometry width="50" height="50" relative="1" as="geometry">
            <mxPoint x="605" y="410.05999999999995" as="sourcePoint"/>
            <mxPoint x="624.9972511214532" y="409.9999999999998" as="targetPoint"/>
          </mxGeometry>
        </mxCell>
        <mxCell id="wWVAUo-H3skDUArlrtCe-62" value="" style="endArrow=none;html=1;fontSize=14;entryX=0.5;entryY=1;entryDx=0;entryDy=0;strokeColor=#3333FF;" parent="1" edge="1">
          <mxGeometry width="50" height="50" relative="1" as="geometry">
            <mxPoint x="605" y="330" as="sourcePoint"/>
            <mxPoint x="725" y="330" as="targetPoint"/>
          </mxGeometry>
        </mxCell>
        <mxCell id="wWVAUo-H3skDUArlrtCe-63" value="Нуль-индикатор" style="text;html=1;resizable=0;autosize=1;align=center;verticalAlign=middle;points=[];fillColor=none;strokeColor=none;rounded=0;fontSize=14;fontColor=#FF6666;" parent="1" vertex="1">
          <mxGeometry x="690" y="280" width="120" height="20" as="geometry"/>
        </mxCell>
        <mxCell id="wWVAUo-H3skDUArlrtCe-64" value="" style="html=1;outlineConnect=0;align=center;dashed=0;aspect=fixed;shape=mxgraph.pid2inst.discInst;mounting=local;fontSize=14;rotation=90;fontColor=#33FF99;strokeColor=#FF6666;" parent="1" vertex="1">
          <mxGeometry x="725" y="305" width="50" height="50" as="geometry"/>
        </mxCell>
        <mxCell id="wWVAUo-H3skDUArlrtCe-65" value="" style="endArrow=none;html=1;fontSize=14;fontColor=#33FF99;strokeColor=#FF6666;" parent="1" edge="1">
          <mxGeometry width="50" height="50" relative="1" as="geometry">
            <mxPoint x="775" y="330" as="sourcePoint"/>
            <mxPoint x="885" y="330" as="targetPoint"/>
          </mxGeometry>
        </mxCell>
        <mxCell id="wWVAUo-H3skDUArlrtCe-67" value="" style="endArrow=classic;html=1;fontSize=14;fontColor=#33FF99;strokeColor=#FF6666;" parent="1" edge="1">
          <mxGeometry width="50" height="50" relative="1" as="geometry">
            <mxPoint x="885" y="330" as="sourcePoint"/>
            <mxPoint x="885" y="170" as="targetPoint"/>
          </mxGeometry>
        </mxCell>
        <mxCell id="wWVAUo-H3skDUArlrtCe-68" value="К измерительной &lt;br&gt;ячейке" style="text;html=1;resizable=0;autosize=1;align=center;verticalAlign=middle;points=[];fillColor=none;strokeColor=none;rounded=0;fontSize=14;fontColor=#FF6666;" parent="1" vertex="1">
          <mxGeometry x="895" y="170" width="130" height="40" as="geometry"/>
        </mxCell>
        <mxCell id="2cslVzQGtRZGg1Vlj-lh-2" value="" style="endArrow=none;html=1;fontColor=#33FF99;strokeColor=#FF6666;" parent="1" edge="1">
          <mxGeometry width="50" height="50" relative="1" as="geometry">
            <mxPoint x="880" y="330" as="sourcePoint"/>
            <mxPoint x="960" y="330" as="targetPoint"/>
          </mxGeometry>
        </mxCell>
        <mxCell id="2cslVzQGtRZGg1Vlj-lh-3" value="" style="verticalLabelPosition=bottom;align=center;html=1;verticalAlign=top;pointerEvents=1;dashed=0;shape=mxgraph.pid2valves.valve;valveType=gate;fontColor=#33FF99;strokeColor=#FF6666;" parent="1" vertex="1">
          <mxGeometry x="960" y="320" width="40" height="20" as="geometry"/>
        </mxCell>
        <mxCell id="2cslVzQGtRZGg1Vlj-lh-4" value="" style="endArrow=none;html=1;fontColor=#33FF99;strokeColor=#FF6666;" parent="1" edge="1">
          <mxGeometry width="50" height="50" relative="1" as="geometry">
            <mxPoint x="1000" y="330" as="sourcePoint"/>
            <mxPoint x="1040" y="330" as="targetPoint"/>
          </mxGeometry>
        </mxCell>
        <mxCell id="2cslVzQGtRZGg1Vlj-lh-5" value="" style="endArrow=none;html=1;fontColor=#33FF99;strokeColor=#FF6666;" parent="1" edge="1">
          <mxGeometry width="50" height="50" relative="1" as="geometry">
            <mxPoint x="1040" y="400" as="sourcePoint"/>
            <mxPoint x="1040" y="330" as="targetPoint"/>
          </mxGeometry>
        </mxCell>
        <mxCell id="2cslVzQGtRZGg1Vlj-lh-6" value="" style="endArrow=none;html=1;fontColor=#33FF99;strokeColor=#FF6666;" parent="1" edge="1">
          <mxGeometry width="50" height="50" relative="1" as="geometry">
            <mxPoint x="1040" y="330" as="sourcePoint"/>
            <mxPoint x="1040" y="280" as="targetPoint"/>
          </mxGeometry>
        </mxCell>
        <mxCell id="2cslVzQGtRZGg1Vlj-lh-7" value="" style="verticalLabelPosition=bottom;align=center;html=1;verticalAlign=top;pointerEvents=1;dashed=0;shape=mxgraph.pid2valves.valve;valveType=gate;rotation=-90;fontColor=#33FF99;strokeColor=#FF6666;" parent="1" vertex="1">
          <mxGeometry x="1020" y="250" width="40" height="20" as="geometry"/>
        </mxCell>
        <mxCell id="2cslVzQGtRZGg1Vlj-lh-8" value="" style="endArrow=none;html=1;fontColor=#33FF99;strokeColor=#FF6666;" parent="1" edge="1">
          <mxGeometry width="50" height="50" relative="1" as="geometry">
            <mxPoint x="1040" y="240" as="sourcePoint"/>
            <mxPoint x="1040" y="200" as="targetPoint"/>
          </mxGeometry>
        </mxCell>
        <mxCell id="2cslVzQGtRZGg1Vlj-lh-9" value="" style="endArrow=none;html=1;fontColor=#33FF99;strokeColor=#FF6666;" parent="1" edge="1">
          <mxGeometry width="50" height="50" relative="1" as="geometry">
            <mxPoint x="1040" y="200" as="sourcePoint"/>
            <mxPoint x="1080" y="200" as="targetPoint"/>
          </mxGeometry>
        </mxCell>
        <mxCell id="2cslVzQGtRZGg1Vlj-lh-10" value="" style="html=1;outlineConnect=0;align=center;dashed=0;aspect=fixed;shape=mxgraph.pid2inst.discInst;mounting=inaccessible;direction=south;rotation=-180;fontColor=#33FF99;strokeColor=#FF6666;" parent="1" vertex="1">
          <mxGeometry x="1080" y="180" width="50" height="50" as="geometry"/>
        </mxCell>
        <mxCell id="2cslVzQGtRZGg1Vlj-lh-12" value="" style="endArrow=none;html=1;fontColor=#33FF99;strokeColor=#FF6666;" parent="1" edge="1">
          <mxGeometry width="50" height="50" relative="1" as="geometry">
            <mxPoint x="1130" y="200" as="sourcePoint"/>
            <mxPoint x="1200" y="200" as="targetPoint"/>
          </mxGeometry>
        </mxCell>
        <mxCell id="2cslVzQGtRZGg1Vlj-lh-13" value="Механический&lt;br style=&quot;font-size: 14px;&quot;&gt;&amp;nbsp;фильтр" style="text;html=1;resizable=0;autosize=1;align=center;verticalAlign=middle;points=[];fillColor=none;strokeColor=none;rounded=0;fontColor=#FF6666;fontSize=14;" parent="1" vertex="1">
          <mxGeometry x="1055" y="225" width="110" height="40" as="geometry"/>
        </mxCell>
        <mxCell id="2cslVzQGtRZGg1Vlj-lh-14" value="" style="endArrow=none;html=1;fontColor=#33FF99;strokeColor=#FF6666;" parent="1" edge="1">
          <mxGeometry width="50" height="50" relative="1" as="geometry">
            <mxPoint x="1200" y="240" as="sourcePoint"/>
            <mxPoint x="1200" y="200" as="targetPoint"/>
          </mxGeometry>
        </mxCell>
        <mxCell id="2cslVzQGtRZGg1Vlj-lh-15" value="" style="verticalLabelPosition=bottom;align=center;html=1;verticalAlign=top;pointerEvents=1;dashed=0;shape=mxgraph.pid2valves.valve;valveType=gate;rotation=-90;fontColor=#33FF99;strokeColor=#FF6666;" parent="1" vertex="1">
          <mxGeometry x="1180" y="250" width="40" height="20" as="geometry"/>
        </mxCell>
        <mxCell id="2cslVzQGtRZGg1Vlj-lh-17" value="" style="shape=mxgraph.pid.vessels.container,_tank,_cistern;html=1;pointerEvents=1;align=center;verticalLabelPosition=bottom;verticalAlign=top;dashed=0;strokeColor=#FF6666;fillColor=#dae8fc;" parent="1" vertex="1">
          <mxGeometry x="1150" y="360" width="100" height="160" as="geometry"/>
        </mxCell>
        <mxCell id="2cslVzQGtRZGg1Vlj-lh-18" value="" style="shape=mxgraph.pid.vessels.gas_bottle;html=1;pointerEvents=1;align=center;verticalLabelPosition=bottom;verticalAlign=top;dashed=0;fontColor=#33FF99;strokeColor=#FF6666;" parent="1" vertex="1">
          <mxGeometry x="1180" y="305" width="40" height="165" as="geometry"/>
        </mxCell>
        <mxCell id="2cslVzQGtRZGg1Vlj-lh-19" value="" style="shape=mxgraph.pid.vessels.tank;html=1;pointerEvents=1;align=center;verticalLabelPosition=bottom;verticalAlign=top;dashed=0;fontColor=#33FF99;strokeColor=#FF6666;" parent="1" vertex="1">
          <mxGeometry x="1230" y="300" width="10" height="170" as="geometry"/>
        </mxCell>
        <mxCell id="2cslVzQGtRZGg1Vlj-lh-21" value="Водяная баня" style="text;html=1;resizable=0;autosize=1;align=center;verticalAlign=middle;points=[];fillColor=none;strokeColor=none;rounded=0;fontColor=#FF6666;fontSize=14;" parent="1" vertex="1">
          <mxGeometry x="1145" y="480" width="110" height="20" as="geometry"/>
        </mxCell>
        <mxCell id="2cslVzQGtRZGg1Vlj-lh-22" value="Расходный &lt;br style=&quot;font-size: 14px;&quot;&gt;баллон" style="text;html=1;resizable=0;autosize=1;align=center;verticalAlign=middle;points=[];fillColor=none;strokeColor=none;rounded=0;rotation=-90;fontColor=#FF6666;fontSize=14;" parent="1" vertex="1">
          <mxGeometry x="1155" y="380" width="90" height="40" as="geometry"/>
        </mxCell>
        <mxCell id="2cslVzQGtRZGg1Vlj-lh-23" value="Термометр" style="text;html=1;resizable=0;autosize=1;align=center;verticalAlign=middle;points=[];fillColor=none;strokeColor=none;rounded=0;fontColor=#FF6666;fontSize=14;" parent="1" vertex="1">
          <mxGeometry x="1235" y="300" width="90" height="20" as="geometry"/>
        </mxCell>
        <mxCell id="2cslVzQGtRZGg1Vlj-lh-24" value="" style="endArrow=none;html=1;entryX=-0.011;entryY=0.506;entryDx=0;entryDy=0;entryPerimeter=0;fontColor=#33FF99;strokeColor=#FF6666;" parent="1" target="2cslVzQGtRZGg1Vlj-lh-15" edge="1">
          <mxGeometry width="50" height="50" relative="1" as="geometry">
            <mxPoint x="1200" y="305" as="sourcePoint"/>
            <mxPoint x="1250" y="255" as="targetPoint"/>
          </mxGeometry>
        </mxCell>
        <mxCell id="2cslVzQGtRZGg1Vlj-lh-25" value="" style="verticalLabelPosition=bottom;align=center;html=1;verticalAlign=top;pointerEvents=1;dashed=0;shape=mxgraph.pid2valves.valve;valveType=gate;rotation=-90;strokeColor=#00CC66;" parent="1" vertex="1">
          <mxGeometry x="1020" y="410" width="40" height="20" as="geometry"/>
        </mxCell>
        <mxCell id="2cslVzQGtRZGg1Vlj-lh-26" value="" style="endArrow=none;html=1;strokeColor=#00CC66;" parent="1" edge="1">
          <mxGeometry width="50" height="50" relative="1" as="geometry">
            <mxPoint x="1040" y="520" as="sourcePoint"/>
            <mxPoint x="1040" y="440" as="targetPoint"/>
          </mxGeometry>
        </mxCell>
        <mxCell id="2cslVzQGtRZGg1Vlj-lh-27" value="" style="endArrow=none;html=1;strokeColor=#00CC66;" parent="1" edge="1">
          <mxGeometry width="50" height="50" relative="1" as="geometry">
            <mxPoint x="1000" y="520" as="sourcePoint"/>
            <mxPoint x="1040" y="520" as="targetPoint"/>
          </mxGeometry>
        </mxCell>
        <mxCell id="2cslVzQGtRZGg1Vlj-lh-28" value="" style="shape=mxgraph.pid.vessels.tank,_vessel;html=1;pointerEvents=1;align=center;verticalLabelPosition=bottom;verticalAlign=top;dashed=0;strokeColor=#00CC66;" parent="1" vertex="1">
          <mxGeometry x="960" y="480" width="40" height="80" as="geometry"/>
        </mxCell>
        <mxCell id="2cslVzQGtRZGg1Vlj-lh-29" value="Вакуумный&lt;br style=&quot;font-size: 14px;&quot;&gt;&amp;nbsp;коллектор" style="text;html=1;resizable=0;autosize=1;align=center;verticalAlign=middle;points=[];fillColor=none;strokeColor=none;rounded=0;fontColor=#00CC66;fontSize=14;" parent="1" vertex="1">
          <mxGeometry x="935" y="435" width="90" height="40" as="geometry"/>
        </mxCell>
        <mxCell id="2cslVzQGtRZGg1Vlj-lh-30" value="" style="endArrow=none;html=1;strokeColor=#00CC66;" parent="1" edge="1">
          <mxGeometry width="50" height="50" relative="1" as="geometry">
            <mxPoint x="880" y="520" as="sourcePoint"/>
            <mxPoint x="960" y="520" as="targetPoint"/>
          </mxGeometry>
        </mxCell>
        <mxCell id="2cslVzQGtRZGg1Vlj-lh-31" value="" style="endArrow=none;html=1;strokeColor=#00CC66;" parent="1" edge="1">
          <mxGeometry width="50" height="50" relative="1" as="geometry">
            <mxPoint x="880" y="520" as="sourcePoint"/>
            <mxPoint x="880" y="480" as="targetPoint"/>
          </mxGeometry>
        </mxCell>
        <mxCell id="2cslVzQGtRZGg1Vlj-lh-32" value="" style="endArrow=none;html=1;strokeColor=#00CC66;" parent="1" edge="1">
          <mxGeometry width="50" height="50" relative="1" as="geometry">
            <mxPoint x="800" y="520" as="sourcePoint"/>
            <mxPoint x="880" y="520" as="targetPoint"/>
          </mxGeometry>
        </mxCell>
        <mxCell id="2cslVzQGtRZGg1Vlj-lh-33" value="" style="shape=mxgraph.pid.pumps_-_iso.pump_(liquid);html=1;pointerEvents=1;align=center;verticalLabelPosition=bottom;verticalAlign=top;dashed=0;strokeColor=#00CC66;" parent="1" vertex="1">
          <mxGeometry x="730" y="485" width="70" height="70" as="geometry"/>
        </mxCell>
        <mxCell id="2cslVzQGtRZGg1Vlj-lh-36" value="" style="perimeter=ellipsePerimeter;verticalLabelPosition=bottom;shadow=0;dashed=0;align=center;html=1;verticalAlign=top;shape=mxgraph.electrical.instruments.galvanometer;rotation=-45;strokeColor=#00CC66;" parent="1" vertex="1">
          <mxGeometry x="850" y="330" width="60" height="250" as="geometry"/>
        </mxCell>
        <mxCell id="2cslVzQGtRZGg1Vlj-lh-37" value="Вакуумметр" style="text;html=1;resizable=0;autosize=1;align=center;verticalAlign=middle;points=[];fillColor=none;strokeColor=none;rounded=0;fontColor=#00CC66;fontSize=14;" parent="1" vertex="1">
          <mxGeometry x="835" y="400" width="90" height="20" as="geometry"/>
        </mxCell>
        <mxCell id="2cslVzQGtRZGg1Vlj-lh-38" value="Форвакуумный &lt;br style=&quot;font-size: 14px;&quot;&gt;насос" style="text;html=1;resizable=0;autosize=1;align=center;verticalAlign=middle;points=[];fillColor=none;strokeColor=none;rounded=0;fontColor=#00CC66;fontSize=14;" parent="1" vertex="1">
          <mxGeometry x="710" y="445" width="110" height="40" as="geometry"/>
        </mxCell>
      </root>
    </mxGraphModel>
  </diagram>
</mxfile>
